<svg width="1280" height="137" viewBox="0 0 1280 137" fill="black" xmlns="http://www.w3.org/2000/svg">
<path fill-rule="evenodd" clip-rule="evenodd" d="M232.336 1.60965H53.7815C24.9699 1.60965 1.61345 24.9112 1.61345 53.6552V137H0V53.6552C0 24.0222 24.0788 0 53.7815 0H232.336C255.504 0 274.286 18.7373 274.286 41.851C274.286 64.9647 293.067 83.702 316.235 83.702H1226.22C1255.8 83.702 1279.81 107.531 1280 137H1278.39C1278.19 108.42 1254.91 85.3117 1226.22 85.3117H316.235C292.176 85.3117 272.672 65.8537 272.672 41.851C272.672 19.6263 254.613 1.60965 232.336 1.60965Z" fill="#9FD131"/>
</svg>
