<svg width="1190" height="656" viewBox="0 0 1190 656" fill="none" xmlns="http://www.w3.org/2000/svg">
<mask id="path-1-inside-1_1076_754" fill="white">
<path fill-rule="evenodd" clip-rule="evenodd" d="M255 39C255 17.4609 237.539 0 216 0H50C22.3858 0 0 22.3858 0 50V78V606C0 633.614 22.3858 656 50 656H1140C1167.61 656 1190 633.614 1190 606V128C1190 100.386 1167.61 78 1140 78H294C272.461 78 255 60.5391 255 39Z"/>
</mask>
<path d="M50 1.5H216V-1.5H50V1.5ZM1.5 78V50H-1.5V78H1.5ZM1.5 606V78H-1.5V606H1.5ZM1140 654.5H50V657.5H1140V654.5ZM1188.5 128V606H1191.5V128H1188.5ZM294 79.5H1140V76.5H294V79.5ZM294 76.5C273.289 76.5 256.5 59.7107 256.5 39H253.5C253.5 61.3675 271.632 79.5 294 79.5V76.5ZM1140 657.5C1168.44 657.5 1191.5 634.443 1191.5 606H1188.5C1188.5 632.786 1166.79 654.5 1140 654.5V657.5ZM-1.5 606C-1.5 634.443 21.5573 657.5 50 657.5V654.5C23.2142 654.5 1.5 632.786 1.5 606H-1.5ZM216 1.5C236.711 1.5 253.5 18.2893 253.5 39H256.5C256.5 16.6325 238.368 -1.5 216 -1.5V1.5ZM1191.5 128C1191.5 99.5573 1168.44 76.5 1140 76.5V79.5C1166.79 79.5 1188.5 101.214 1188.5 128H1191.5ZM50 -1.5C21.5573 -1.5 -1.5 21.5573 -1.5 50H1.5C1.5 23.2142 23.2142 1.5 50 1.5V-1.5Z" fill="#9FD131" mask="url(#path-1-inside-1_1076_754)"/>
</svg>
