<svg width="217" height="26" viewBox="0 0 217 26" fill="none" xmlns="http://www.w3.org/2000/svg">
<path fill-rule="evenodd" clip-rule="evenodd" d="M141.66 12.9772L146.937 12.8436L151.212 4.11798H152.751L156.903 12.5915L175.864 12.1117C177.313 12.1092 178.109 11.971 178.86 11.3736C179.633 10.7706 180.019 9.9251 180.019 8.83708C180.019 7.73596 179.633 6.8839 178.86 6.2809C178.102 5.67791 176.985 5.37641 175.509 5.37641H170.03V4.11798H175.552C176.802 4.11798 177.877 4.30806 178.776 4.68821C179.675 5.05525 180.364 5.5927 180.841 6.30056C181.333 6.99532 181.579 7.84083 181.579 8.83708C181.579 9.80712 181.333 10.6461 180.841 11.3539C180.558 11.7659 180.201 12.1226 179.769 12.424C198.344 12.0072 204.458 11.5276 204.218 0C204.236 0.275938 204.253 0.564858 204.269 0.864249C204.526 5.45055 204.919 12.4943 215.664 12.9772H216.955C216.638 12.9772 216.328 12.9845 216.026 12.9989C216.342 13.0147 216.667 13.0228 217 13.0228H215.62C204.869 13.9443 204.482 20.6628 204.221 25.2018C204.206 25.4764 204.19 25.7431 204.173 26C204.418 14.2231 198.031 13.9772 178.501 13.549L181.811 17.882H180.104L177.117 13.9494L176.755 13.5106C176.303 13.5007 175.845 13.4904 175.38 13.4798L157.209 13.216L159.495 17.882H157.851L155.602 13.1927L148.39 13.088L146.091 17.882H144.468L146.828 13.0653L144.268 13.0281L143.609 13.0228H140.802L141.8 13.0084L140.757 13L141.331 12.9855L140.757 12.9772H141.66ZM155.332 12.6312L151.971 5.62259L148.527 12.8034L155.332 12.6312Z" fill="#3F4D55"/>
<path d="M102.466 18C101.37 18 100.316 17.8361 99.3047 17.5084C98.3072 17.1676 97.5345 16.735 96.9865 16.2107L97.5977 15.0899C98.1175 15.5618 98.813 15.9616 99.6841 16.2893C100.569 16.6039 101.497 16.7612 102.466 16.7612C103.393 16.7612 104.145 16.6564 104.721 16.4466C105.311 16.2238 105.74 15.9288 106.007 15.5618C106.288 15.1948 106.428 14.7884 106.428 14.3427C106.428 13.8052 106.259 13.3727 105.922 13.0449C105.599 12.7172 105.171 12.4616 104.637 12.2781C104.103 12.0815 103.513 11.911 102.866 11.7669C102.22 11.6227 101.574 11.4719 100.928 11.3146C100.281 11.1442 99.6841 10.9213 99.1362 10.6461C98.6022 10.3708 98.1667 10.0103 97.8295 9.56461C97.5064 9.10581 97.3448 8.50937 97.3448 7.77528C97.3448 7.09363 97.5344 6.47098 97.9138 5.90731C98.3072 5.33053 98.9043 4.87172 99.7052 4.5309C100.506 4.17697 101.532 4 102.782 4C103.611 4 104.433 4.11143 105.248 4.33427C106.063 4.54401 106.765 4.83895 107.355 5.2191L106.828 6.37922C106.196 5.98596 105.522 5.69757 104.805 5.51405C104.103 5.33053 103.421 5.23877 102.761 5.23877C101.876 5.23877 101.145 5.35019 100.569 5.57304C99.9932 5.79588 99.5647 6.09738 99.2837 6.47753C99.0167 6.84457 98.8832 7.26405 98.8832 7.73596C98.8832 8.27341 99.0448 8.70599 99.368 9.03371C99.7052 9.36142 100.141 9.61704 100.675 9.80056C101.223 9.98408 101.82 10.1479 102.466 10.2921C103.112 10.4363 103.752 10.5936 104.384 10.764C105.03 10.9345 105.62 11.1573 106.154 11.4326C106.702 11.6948 107.138 12.0487 107.461 12.4944C107.798 12.9401 107.967 13.5234 107.967 14.2444C107.967 14.9129 107.77 15.5356 107.376 16.1124C106.983 16.676 106.379 17.1348 105.564 17.4888C104.763 17.8296 103.73 18 102.466 18Z" fill="#3F4D55"/>
<path d="M5.18443 17.882V5.37641H0V4.11798H11.9284V5.37641H6.74398V17.882H5.18443Z" fill="#3F4D55"/>
<path d="M23.0981 4.11798V5.37641H28.5776C30.0529 5.37641 31.1698 5.67791 31.9285 6.2809C32.7013 6.8839 33.0876 7.73596 33.0876 8.83708C33.0876 9.9251 32.7013 10.7706 31.9285 11.3736C31.1769 11.971 30.381 12.1092 28.9317 12.1117L28.8908 12.1117L29.3785 12.8876L30.178 13.9494L30.1849 13.9494L33.1719 17.882H34.879L31.3694 13.2869C31.4709 13.1733 31.6111 13.0614 31.8442 12.9663C32.7434 12.5861 33.4319 12.0487 33.9096 11.3539C34.4013 10.6461 34.6472 9.80712 34.6472 8.83708C34.6472 7.84083 34.4013 6.99532 33.9096 6.30056C33.4319 5.5927 32.7434 5.05525 31.8442 4.68821C30.945 4.30806 29.8702 4.11798 28.6198 4.11798H23.0981Z" fill="#3F4D55"/>
<path d="M49.3782 11.5112V16.6236H58.2508V17.882H47.8187V4.11798H57.9347V5.37641H49.3782V10.2725H57.0074V11.5112H49.3782Z" fill="#3F4D55"/>
<path d="M74.6682 11.5112V16.6236H83.5407V17.882H73.1086V4.11798H83.2246V5.37641H74.6682V10.2725H82.2973V11.5112H74.6682Z" fill="#3F4D55"/>
<path d="M126.555 17.882V5.37641H121.37V4.11798H133.299V5.37641H128.114V17.882H126.555Z" fill="#3F4D55"/>
</svg>
