<svg width="21" height="24" viewBox="0 0 21 24" fill="none" xmlns="http://www.w3.org/2000/svg">
<path fill-rule="evenodd" clip-rule="evenodd" d="M9.61404 18.7153C8.95048 18.9068 8.24922 19.0094 7.524 19.0094C3.36861 19.0094 0 15.6408 0 11.4854C0 8.53261 1.70091 5.97713 4.17638 4.74526C4.74364 1.6066 7.76056 -0.476074 10.9145 0.0939505C13.6698 0.591926 15.6185 2.94937 15.6888 5.62997C15.6938 5.82113 15.8173 5.99106 15.9989 6.05109C18.861 6.99742 20.9 9.4478 20.9 12.3215C20.9 16.0152 17.5314 19.0095 13.376 19.0095C12.4966 19.0095 11.6525 18.8754 10.868 18.629V22.7712C10.868 23.1175 10.5873 23.3982 10.241 23.3982C9.89476 23.3982 9.61404 23.1175 9.61404 22.7712V18.7153ZM5.41067 4.9679C5.85373 2.51642 8.2134 0.880084 10.6915 1.32796C12.8544 1.71887 14.3803 3.56837 14.4353 5.66288C14.4538 6.37025 14.9099 7.01181 15.6052 7.2417C18.0477 8.04926 19.646 10.0814 19.646 12.3215C19.646 15.1878 16.9818 17.7555 13.376 17.7555C12.513 17.7555 11.6951 17.6045 10.9528 17.3339C10.9247 17.3237 10.8965 17.3142 10.868 17.3055V16.2431L14.3075 14.3323C14.6102 14.1641 14.7193 13.7824 14.5511 13.4797C14.383 13.177 14.0013 13.0679 13.6985 13.2361L10.868 14.8086V7.93219C10.868 7.58591 10.5873 7.30519 10.241 7.30519C9.89476 7.30519 9.61404 7.58591 9.61404 7.93219V12.0779L5.80283 9.30612C5.52278 9.10244 5.13064 9.16436 4.92697 9.44441C4.72329 9.72446 4.78521 10.1166 5.06526 10.3203L9.61404 13.6285V15.8628C9.61389 15.8708 9.61389 15.8787 9.61404 15.8867V17.3989C8.96182 17.6295 8.25888 17.7554 7.524 17.7554C4.06117 17.7554 1.254 14.9482 1.254 11.4854C1.254 9.02657 2.66912 6.896 4.73505 5.86793C5.08848 5.69205 5.33996 5.35914 5.41067 4.9679Z" fill="#9FD131"/>
</svg>
