<svg width="23" height="22" viewBox="0 0 23 22" fill="none" xmlns="http://www.w3.org/2000/svg">
<path d="M11.4738 21.848C9.80984 21.848 8.28984 21.576 6.91384 21.032C5.53784 20.488 4.35384 19.728 3.36184 18.752C2.36984 17.776 1.60184 16.624 1.05784 15.296C0.513844 13.952 0.241844 12.488 0.241844 10.904C0.241844 9.32 0.513844 7.864 1.05784 6.536C1.60184 5.208 2.36984 4.056 3.36184 3.08C4.36984 2.104 5.56984 1.352 6.96184 0.823999C8.35384 0.296 9.88984 0.0319996 11.5698 0.0319996C13.2178 0.0319996 14.7218 0.288 16.0818 0.8C17.4418 1.312 18.6178 2.04 19.6098 2.984C20.6178 3.912 21.3938 5.024 21.9378 6.32C22.4818 7.6 22.7538 9.016 22.7538 10.568C22.7538 11.928 22.5858 13.096 22.2498 14.072C21.9138 15.048 21.4258 15.808 20.7858 16.352C20.1618 16.88 19.3938 17.144 18.4818 17.144C17.5858 17.144 16.8658 16.872 16.3218 16.328C15.7938 15.784 15.5298 15.008 15.5298 14V12.368L15.6498 10.904L15.4338 8.144V4.952H17.5218V13.592C17.5218 14.232 17.6498 14.68 17.9058 14.936C18.1778 15.192 18.5058 15.32 18.8898 15.32C19.3538 15.32 19.7538 15.136 20.0898 14.768C20.4418 14.4 20.6978 13.864 20.8578 13.16C21.0338 12.44 21.1218 11.584 21.1218 10.592C21.1218 9.248 20.8898 8.032 20.4258 6.944C19.9778 5.84 19.3218 4.888 18.4578 4.088C17.6098 3.288 16.6018 2.68 15.4338 2.264C14.2818 1.832 12.9938 1.616 11.5698 1.616C10.1458 1.616 8.84184 1.848 7.65784 2.312C6.48984 2.76 5.48184 3.4 4.63384 4.232C3.78584 5.048 3.12984 6.024 2.66584 7.16C2.21784 8.296 1.99384 9.544 1.99384 10.904C1.99384 12.28 2.21784 13.544 2.66584 14.696C3.11384 15.832 3.75384 16.808 4.58584 17.624C5.43384 18.456 6.43384 19.096 7.58584 19.544C8.75384 20.008 10.0498 20.24 11.4738 20.24C12.2098 20.24 12.9858 20.152 13.8018 19.976C14.6178 19.816 15.3858 19.552 16.1058 19.184L16.6338 20.72C15.8978 21.088 15.0658 21.368 14.1378 21.56C13.2098 21.752 12.3218 21.848 11.4738 21.848ZM11.0418 17.144C9.90584 17.144 8.89784 16.88 8.01784 16.352C7.13784 15.808 6.44184 15.072 5.92984 14.144C5.41784 13.216 5.16184 12.16 5.16184 10.976C5.16184 9.776 5.41784 8.72 5.92984 7.808C6.44184 6.88 7.13784 6.16 8.01784 5.648C8.89784 5.12 9.90584 4.856 11.0418 4.856C12.1458 4.856 13.1138 5.096 13.9458 5.576C14.7778 6.04 15.4258 6.728 15.8898 7.64C16.3698 8.552 16.6098 9.664 16.6098 10.976C16.6098 12.288 16.3778 13.4 15.9138 14.312C15.4498 15.224 14.8018 15.928 13.9698 16.424C13.1378 16.904 12.1618 17.144 11.0418 17.144ZM11.3778 15.272C12.1618 15.272 12.8578 15.104 13.4658 14.768C14.0898 14.416 14.5778 13.92 14.9298 13.28C15.2978 12.624 15.4818 11.856 15.4818 10.976C15.4818 10.08 15.2978 9.312 14.9298 8.672C14.5778 8.032 14.0898 7.544 13.4658 7.208C12.8578 6.872 12.1618 6.704 11.3778 6.704C10.5778 6.704 9.86584 6.88 9.24184 7.232C8.63384 7.568 8.15384 8.056 7.80184 8.696C7.46584 9.336 7.29784 10.096 7.29784 10.976C7.29784 11.84 7.46584 12.592 7.80184 13.232C8.15384 13.872 8.63384 14.376 9.24184 14.744C9.86584 15.096 10.5778 15.272 11.3778 15.272Z" fill="#9FD131"/>
</svg>
