<svg width="24" height="24" viewBox="0 0 24 24" fill="none" xmlns="http://www.w3.org/2000/svg">
<path d="M12.2909 8.77045e-05C13.856 0.00697532 15.4135 0.316918 16.845 0.926473C18.4342 1.59802 19.8657 2.62772 21.0119 3.9157C21.8806 4.89099 22.5874 6.01298 23.0902 7.2252C23.9548 9.29218 24.2062 11.6181 23.8314 13.8511C23.5166 15.7507 22.7382 17.5787 21.5871 19.1325C20.6062 20.4618 19.358 21.5928 17.9423 22.4338C16.6032 23.2313 15.1139 23.7665 13.5846 24C13.6108 22.9453 13.6367 21.8906 13.6624 20.8358C13.6794 20.1328 13.6964 19.4298 13.7134 18.7268C13.7391 17.6721 13.7651 16.6176 13.7912 15.5634C14.0493 15.5643 14.3074 15.5652 14.5655 15.5661C14.8103 15.567 15.0549 15.5682 15.2992 15.5696C15.5286 15.5702 15.7318 15.5709 15.9357 15.5723C16.1511 15.5732 16.3665 15.5741 16.5818 15.5751C16.7899 14.4138 16.9952 13.2512 17.2032 12.0899C16.8661 12.0885 16.5293 12.0872 16.1926 12.0858C15.8606 12.0844 15.5286 12.083 15.1965 12.0817C14.9609 12.081 14.7495 12.0796 14.538 12.0789C14.3175 12.078 14.0969 12.0771 13.876 12.0762C13.8824 11.8094 13.8888 11.5426 13.8953 11.2758C13.9017 11.009 13.9081 10.7422 13.9146 10.4755C13.9191 10.2978 13.9235 10.1201 13.9276 9.94237C13.9276 9.91482 13.9281 9.88704 13.929 9.85903C13.9338 9.6648 13.9538 9.46988 13.9993 9.28047C14.0875 8.90922 14.2865 8.55382 14.5951 8.32171C14.9306 8.06274 15.357 7.95942 15.769 7.94358C15.8167 7.94266 15.8647 7.94174 15.9129 7.94082C16.1003 7.93876 16.2884 7.93807 16.4757 7.93945C16.5495 7.93945 16.6032 7.93945 16.6569 7.94014C16.7134 7.94059 16.7701 7.94105 16.8271 7.94151C16.8859 7.94197 16.9446 7.9422 17.0034 7.9422C17.0507 7.94266 17.098 7.94289 17.1453 7.94289C17.2094 7.94358 17.2549 7.94358 17.3003 7.94358C17.3485 7.94358 17.3965 7.94358 17.4443 7.94358C17.4489 7.75853 17.4535 7.57349 17.4581 7.38844C17.4684 6.95658 17.4787 6.52473 17.4891 6.09288C17.4983 5.72278 17.5077 5.35269 17.5173 4.98259C16.927 4.88134 16.3311 4.80696 15.7332 4.7615C15.6594 4.75668 15.6257 4.75461 15.5919 4.75255C15.3377 4.7367 15.1049 4.72637 14.8728 4.72568C14.569 4.72431 14.2748 4.73808 13.9821 4.77872C13.2181 4.87997 12.4624 5.15409 11.8445 5.63347C11.2672 6.07772 10.8305 6.69417 10.568 7.37122C10.3228 8.00144 10.2085 8.67505 10.1919 9.34521C10.1906 9.39618 10.1899 9.44692 10.1899 9.49743C10.1798 9.92492 10.1694 10.3522 10.1589 10.7792C10.1483 11.2062 10.1377 11.633 10.1272 12.0596C9.61925 12.0582 9.11133 12.0564 8.60341 12.0541C8.09503 12.0518 7.58687 12.0495 7.07895 12.0472C7.06839 12.4834 7.0576 12.9194 7.04657 13.3552C7.02912 14.0816 7.01167 14.8082 6.99422 15.5351C7.27757 15.536 7.56116 15.5372 7.84497 15.5386C8.12373 15.5395 8.40272 15.5406 8.68194 15.542C8.92717 15.5427 9.1483 15.5434 9.36874 15.5448C9.59331 15.5457 9.81787 15.5468 10.0424 15.5482C10.0167 16.6025 9.99124 17.657 9.96598 18.7117C9.92258 20.4687 9.87987 22.2264 9.83716 23.9842C7.39583 23.5943 5.10535 22.4055 3.38526 20.645C2.11293 19.3577 1.14645 17.766 0.583648 16.0331C-0.118994 13.8814 -0.185814 11.5155 0.37561 9.29769C0.799951 7.61917 1.59008 6.02951 2.67022 4.66921C3.54921 3.55823 4.6197 2.60085 5.81695 1.85148C7.2863 0.929227 8.94922 0.327938 10.6555 0.104091C11.1984 0.0324594 11.7453 -0.00197858 12.2909 8.77045e-05Z" fill="#9FD131"/>
</svg>
