<svg width="24" height="24" viewBox="0 0 24 24" fill="none" xmlns="http://www.w3.org/2000/svg">
<path fill-rule="evenodd" clip-rule="evenodd" d="M4.58853 24H19.4115C21.9452 24 24 21.9452 24 19.4115V4.58853C24 2.05481 21.9452 0 19.4115 0H4.58853C2.05481 0 0 2.05481 0 4.58853V19.4115C0 21.9452 2.05481 24 4.58853 24ZM4.49558 9.10577H4.54365H7.55882H7.60688V9.15383V19.6859V19.7339H7.55882H4.54365H4.49558V19.6859V9.15383V9.10577ZM18.765 9.96206C18.1166 9.24368 17.1892 8.86426 16.0821 8.86426C14.4986 8.86426 13.5509 9.67539 13.1276 10.1585L12.8755 10.4469V9.15262V9.10456H12.8266L9.73046 9.10878H9.68241V9.15684V19.6897V19.7378H9.73046H12.8325H12.8805V19.6897V13.5835C12.8805 13.3213 12.9025 12.9545 13.0087 12.6923C13.3316 11.8314 14.0247 11.3187 14.8645 11.3187C16.0703 11.3187 16.7338 12.2108 16.7338 13.8314V19.6897V19.7378H16.7819H19.7971H19.8451V19.6897V13.4207C19.8451 11.9199 19.4817 10.7563 18.765 9.96206ZM4.39776 5.72459C4.39776 4.81396 5.13891 4.07282 6.04953 4.07282C6.96015 4.07282 7.7013 4.81396 7.7013 5.72459C7.7013 6.63521 6.96015 7.37636 6.04953 7.37636C5.13891 7.37636 4.39776 6.63521 4.39776 5.72459Z" fill="#9FD131"/>
</svg>
