<svg width="18" height="18" viewBox="0 0 18 18" fill="none" xmlns="http://www.w3.org/2000/svg">
<path d="M5.49801 0.842896C5.86131 0.842896 6.19602 1.03991 6.37237 1.35753L7.59556 3.56093C7.75571 3.84943 7.76326 4.19838 7.61566 4.49353L6.43726 6.85038C6.43726 6.85038 6.77877 8.60608 8.20796 10.0353C9.63717 11.4645 11.387 11.8001 11.387 11.8001L13.7435 10.6219C14.0388 10.4742 14.388 10.4818 14.6766 10.6423L16.8863 11.8708C17.2036 12.0472 17.4004 12.3817 17.4004 12.7448V15.2815C17.4004 16.5734 16.2004 17.5064 14.9764 17.0934C12.4624 16.2451 8.56007 14.63 6.08667 12.1566C3.61322 9.68318 1.99812 5.78083 1.14985 3.26688C0.736841 2.04283 1.66989 0.842896 2.96172 0.842896H5.49801Z" fill="#9FD131" stroke="#9FD131" stroke-linejoin="round"/>
</svg>
