<svg width="150" height="43" viewBox="0 0 150 43" fill="none" xmlns="http://www.w3.org/2000/svg">
<path d="M18.8254 38.7984C32.1524 41.5961 33.3036 23.9901 24.7482 16.9179C8.62456 21.1925 11.258 37.3179 18.8254 38.7984Z" fill="url(#paint0_radial_1076_1174)"/>
<path d="M0.622156 18.4313C-0.594708 31.0162 10.0846 37.4253 15.4997 39.1313C15.9514 39.2715 16.3819 39.3966 16.7973 39.5111C11.0582 37.4138 7.40411 31.9321 8.7905 25.9668C10.7636 17.9058 22.444 16.7529 24.4198 16.4236C18.2787 11.8721 13.5985 10.1715 10.0642 10.1715C4.44671 10.1706 1.72452 14.4656 0.622156 18.4313Z" fill="url(#paint1_radial_1076_1174)"/>
<path d="M20.132 -9.53674e-05C19.3127 0.0540466 18.5396 0.17742 17.6743 0.30168C26.0654 1.28777 10.7636 7.21233 15.0426 8.69192C21.2938 10.9961 31.3305 15.2715 35.9352 21.1925C36.1163 21.4268 36.2849 21.6611 36.4447 21.8999C38.3361 24.1055 39.908 26.6804 40.7308 29.6209C41.7701 26.9999 42.2778 24.1393 42.1891 21.1925C42.0284 10.8194 33.1962 0.601679 22.0056 -9.53674e-05H20.132Z" fill="url(#paint2_radial_1076_1174)"/>
<path d="M0.0683432 21.3602C0.0239645 21.7996 0.00177515 22.2443 0 22.6916V22.7768C0.0248521 32.2073 9.41539 43.2008 21.7891 42.4162C31.2586 41.9378 37.9314 36.654 40.7308 29.6209C39.908 26.6804 38.3361 24.1055 36.4447 21.8999C40.3846 27.7765 38.2962 35.8197 27.5467 39.4552C23.6609 40.7901 19.918 40.6499 16.7973 39.5111C16.382 39.3966 15.9515 39.2715 15.4997 39.1313C10.0846 37.4253 -0.594675 31.0162 0.622189 18.4313C0.338166 19.4537 0.159763 20.4576 0.0683432 21.3602Z" fill="url(#paint3_radial_1076_1174)"/>
<path d="M24.8485 6.00522C31.2754 7.52474 38.0929 11.6422 41.3068 21.4774C41.7488 22.8345 41.8242 23.8339 41.7781 24.5165C42.0719 22.878 42.331 19.6455 40.9775 15.7526C40.9775 15.7526 38.1497 6.9567 31.0775 3.11883C28.1281 1.51942 25.839 0.919418 24.2121 0.919418C20.0148 0.919418 20.2198 4.90817 24.8485 6.00522ZM41.5038 25.6739C41.5038 25.6739 41.723 25.3091 41.7781 24.5165C41.6441 25.2594 41.5038 25.6739 41.5038 25.6739Z" fill="url(#paint4_radial_1076_1174)"/>
<path d="M25.176 26.4611C23.7488 29.7931 16.4574 37.4759 21.8991 38.131C26.5482 38.691 30.1589 32.7514 28.9917 25.412C28.3447 21.3585 24.7837 17.5437 24.7837 17.5437C24.7837 17.5437 27.1429 21.8706 25.176 26.4611Z" fill="url(#paint5_radial_1076_1174)"/>
<path d="M4.0775 21.2138C1.98017 26.067 9.42248 33.291 9.42248 33.291C9.42248 33.291 4.85236 27.4437 10.3598 21.6105C14.8154 16.8878 24.1278 16.2984 24.1278 16.2984C24.1278 16.2984 21.1686 15.0327 16.5231 14.723C15.7553 14.6724 15.0399 14.6466 14.3707 14.6466C8.17543 14.6466 5.96981 16.8363 4.0775 21.2138Z" fill="url(#paint6_radial_1076_1174)"/>
<mask id="mask0_1076_1174" style="mask-type:luminance" maskUnits="userSpaceOnUse" x="0" y="0" width="150" height="43">
<path d="M0 -9.53674e-05H150V42.6035H0V-9.53674e-05Z" fill="white"/>
</mask>
<g mask="url(#mask0_1076_1174)">
<path fill-rule="evenodd" clip-rule="evenodd" d="M104.839 29.2509C104.839 30.0816 104.509 30.7438 103.011 30.7438H88.2366C86.2449 30.7438 84.9188 30.4127 84.2532 29.7488C83.9221 29.4168 83.5892 28.5852 83.5892 27.4234V21.2813C83.5892 20.2846 83.9221 19.6225 84.2532 19.121C84.752 18.2929 85.7487 17.96 87.2416 17.96H92.8857C93.7165 17.96 94.2135 18.2929 94.5463 19.121C94.8774 19.6225 94.8774 20.1177 94.8774 20.7816C94.8774 21.4482 94.7132 22.1121 94.3786 22.776C93.8807 23.6068 93.0543 23.9379 91.889 23.9379H87.2416V25.5985H95.2103C96.8718 25.5985 98.3656 25.0988 99.1946 23.9379C99.8585 23.1089 100.191 22.1121 100.191 21.1154C100.191 19.9518 99.8585 18.9586 99.1946 18.1296C98.1996 16.9651 96.8718 16.3012 95.2103 16.3012H84.9188C82.0963 16.3012 80.2671 16.7982 79.2703 17.795C78.6064 18.4589 77.9425 19.6225 77.9425 21.2813V27.2574C77.9425 29.0849 78.6064 30.2441 79.2703 30.9097C80.2671 31.9065 82.0963 32.4044 84.9188 32.4044H106.496C110.149 32.4044 110.65 31.0784 110.815 28.2523V11.984H105.004L104.839 29.2509ZM148.17 17.629C147.173 16.7982 145.182 16.3012 142.36 16.3012H119.615V11.984H113.971V28.4192C113.971 30.0816 114.469 31.0784 115.299 31.5736C116.129 32.0716 117.953 32.4044 120.944 32.4044H124.925V30.7438C122.769 30.7438 121.275 30.5787 120.777 30.2441C119.945 29.913 119.615 29.0849 119.615 27.9213V17.96H140.035C141.527 17.96 142.526 18.2929 143.023 18.7899C143.521 19.121 143.688 19.7867 143.688 20.7816V30.7438H135.718C134.723 30.7438 133.892 30.2441 133.56 29.4168C133.063 28.7521 132.898 28.089 132.898 27.4234C132.898 26.0955 133.394 25.4316 134.059 24.9328C134.555 24.6018 135.718 24.4367 137.377 24.4367H141.03V22.776H133.56C131.402 22.776 129.906 23.2739 128.911 24.4367C128.081 25.4316 127.585 26.4284 127.585 27.5902C127.585 28.7521 128.081 29.913 128.911 30.7438C129.906 31.9065 131.402 32.4044 133.56 32.4044H149.165V20.9503C149.165 19.2879 148.833 18.1296 148.17 17.629ZM68.8138 11.984H52.7079V32.4044H68.8138C70.9706 32.4044 72.6295 31.7423 73.7922 30.5787C74.623 29.5819 75.1209 28.4192 75.1209 27.0905V17.4621C75.1209 16.1343 74.623 14.9734 73.7922 13.9766C72.6295 12.6479 70.9706 11.984 68.8138 11.984ZM69.8088 27.0905C69.8088 27.9213 69.4777 28.7521 68.9789 29.4168C68.1481 30.2441 67.1549 30.7438 65.8253 30.7438H58.3555V13.8115H65.8253C67.1549 13.8115 68.1481 14.1426 68.9789 15.1376C69.4777 15.8015 69.8088 16.6322 69.8088 17.4621V27.0905Z" fill="#009985"/>
</g>
<defs>
<radialGradient id="paint0_radial_1076_1174" cx="0" cy="0" r="1" gradientUnits="userSpaceOnUse" gradientTransform="translate(25.3316 20.6503) rotate(45) scale(30.6255)">
<stop stop-color="#00A88F"/>
<stop offset="0.01" stop-color="#00A88F"/>
<stop offset="1"/>
</radialGradient>
<radialGradient id="paint1_radial_1076_1174" cx="0" cy="0" r="1" gradientUnits="userSpaceOnUse" gradientTransform="translate(5.11623 19.7096) scale(58.029 51.1119)">
<stop stop-color="#00A88F"/>
<stop offset="0.01" stop-color="#00A88F"/>
<stop offset="1"/>
</radialGradient>
<radialGradient id="paint2_radial_1076_1174" cx="0" cy="0" r="1" gradientUnits="userSpaceOnUse" gradientTransform="translate(40.0762 20.1839) rotate(-90) scale(36.7694 32.5851)">
<stop stop-color="#007DC3"/>
<stop offset="0.65"/>
<stop offset="1"/>
</radialGradient>
<radialGradient id="paint3_radial_1076_1174" cx="0" cy="0" r="1" gradientUnits="userSpaceOnUse" gradientTransform="translate(42.7185 17.7705) rotate(45) scale(17.988)">
<stop/>
<stop offset="0.01"/>
<stop offset="1" stop-color="#F89728"/>
</radialGradient>
<radialGradient id="paint4_radial_1076_1174" cx="0" cy="0" r="1" gradientUnits="userSpaceOnUse" gradientTransform="translate(32.3993 14.8414) rotate(45) scale(10.0057)">
<stop stop-color="white"/>
<stop offset="1" stop-color="#007DC3"/>
</radialGradient>
<radialGradient id="paint5_radial_1076_1174" cx="0" cy="0" r="1" gradientUnits="userSpaceOnUse" gradientTransform="translate(25.5628 17.5435) rotate(45) scale(16.2229)">
<stop stop-color="white"/>
<stop offset="1" stop-color="#00A88F"/>
</radialGradient>
<radialGradient id="paint6_radial_1076_1174" cx="0" cy="0" r="1" gradientUnits="userSpaceOnUse" gradientTransform="translate(25.7841 17.2456) rotate(45) scale(20.7737)">
<stop stop-color="white"/>
<stop offset="1" stop-color="#00A88F"/>
</radialGradient>
</defs>
</svg>
