<svg width="64" height="68" viewBox="0 0 64 68" fill="none" xmlns="http://www.w3.org/2000/svg">
<g clip-path="url(#clip0_1076_1098)">
<path d="M63.1986 0.261505H0V68H63.1986V0.261505Z" fill="#FCE000"/>
<path d="M0 68H63.24V56.3201H0V68ZM0 11.6799H63.24V0H0V11.6799Z" fill="#009430"/>
<path d="M56.7432 65.5485V61.2922H58.156V62.1602C58.3638 61.8158 58.5995 61.5543 58.8625 61.4025C59.1255 61.2377 59.4581 61.1685 59.8321 61.1685C60.1233 61.1685 60.3728 61.2096 60.5941 61.3062C60.816 61.4025 60.9959 61.5266 61.1207 61.6781C61.2593 61.8432 61.3423 62.0361 61.3837 62.2565C61.4254 62.4765 61.4389 62.7661 61.4389 63.1241V65.5622H59.8876V63.2759C59.8876 62.9452 59.8321 62.6975 59.7214 62.532C59.6108 62.3802 59.4305 62.2976 59.1672 62.2976C58.8347 62.2976 58.5992 62.422 58.4607 62.656C58.3221 62.9041 58.2529 63.2622 58.2529 63.7577V65.5485H56.7432ZM50.3985 65.5485V59.0196H51.9087V61.3062C51.9087 61.5817 51.8946 61.8298 51.8532 62.0776C52.0059 61.8572 52.1441 61.6646 52.2965 61.5403C52.4491 61.4166 52.6152 61.32 52.809 61.2514C53.003 61.1825 53.2246 61.1551 53.4741 61.1551C53.765 61.1551 54.0145 61.1962 54.2361 61.2925C54.458 61.3891 54.638 61.5132 54.7627 61.6646C54.9013 61.8298 54.9844 62.0227 55.0257 62.2428C55.0671 62.4628 55.0947 62.7526 55.0947 63.1107V65.5488H53.5434V63.2625C53.5434 62.9318 53.4879 62.684 53.3773 62.5186C53.2666 62.3668 53.0864 62.2842 52.8231 62.2842C52.4905 62.2842 52.2551 62.4082 52.1165 62.6423C51.978 62.8904 51.909 63.2485 51.909 63.7443V65.5351H50.3988L50.3985 65.5485ZM47.3228 63.4134C47.3228 63.0827 47.2256 62.8212 47.0457 62.6283C46.8658 62.4357 46.6163 62.3394 46.2978 62.3394C45.9931 62.3394 45.7436 62.4357 45.5637 62.6283C45.3834 62.8212 45.2866 63.083 45.2866 63.4134C45.2866 63.7437 45.3696 64.0055 45.5637 64.1984C45.7436 64.391 45.9931 64.4874 46.2978 64.4874C46.6163 64.4874 46.8658 64.391 47.0457 64.1984C47.2256 64.0055 47.3228 63.744 47.3228 63.4134ZM48.6804 61.2922V65.5485H47.2538V64.86C47.0457 65.1627 46.8241 65.3696 46.5752 65.5074C46.3257 65.6451 46.0345 65.714 45.6884 65.714C45.3978 65.714 45.1483 65.6588 44.9126 65.5488C44.6769 65.4385 44.4694 65.2873 44.3032 65.0804C44.1371 64.8741 43.9982 64.6397 43.9152 64.3645C43.8183 64.075 43.7766 63.7583 43.7766 63.4139C43.7766 63.0696 43.8183 62.7529 43.9152 62.4771C43.9982 62.2019 44.1371 61.9676 44.317 61.7612C44.4969 61.5683 44.7048 61.4028 44.9543 61.3065C45.2038 61.1962 45.4809 61.1413 45.7853 61.1413C46.4228 61.1413 46.9075 61.4169 47.2541 61.9816V61.2928H48.6804V61.2922ZM38.9556 63.4274C38.9556 63.7577 39.0387 64.0195 39.2186 64.2121C39.3985 64.4048 39.648 64.5014 39.9527 64.5014C40.2574 64.5014 40.5069 64.4048 40.6869 64.2121C40.8668 64.0195 40.964 63.7575 40.964 63.4274C40.964 63.0967 40.8668 62.8349 40.6869 62.642C40.5069 62.4494 40.2574 62.3531 39.9527 62.3531C39.648 62.3531 39.3985 62.4494 39.2186 62.642C39.0387 62.8349 38.9556 63.0967 38.9556 63.4274ZM37.5839 59.0196H39.0663V61.2377C39.0663 61.5403 39.0525 61.8021 39.0246 61.9953C39.1631 61.7747 39.2876 61.6095 39.4261 61.4854C39.565 61.3614 39.7173 61.2788 39.8973 61.2239C40.0772 61.1691 40.2847 61.1413 40.5342 61.1413C40.8113 61.1413 41.0749 61.1962 41.3241 61.3065C41.5595 61.4169 41.7674 61.568 41.9473 61.7612C42.1272 61.9538 42.2661 62.2019 42.3492 62.4771C42.446 62.7529 42.4877 63.0696 42.4877 63.4139C42.4877 63.7583 42.446 64.075 42.3492 64.3645C42.252 64.6534 42.1134 64.8878 41.9335 65.0944C41.7536 65.2873 41.5317 65.4388 41.2822 65.5491C41.0326 65.6591 40.7696 65.7143 40.465 65.7143C39.8694 65.7143 39.3845 65.4251 38.9826 64.8603V65.5488H37.5557V59.0199L37.5839 59.0196ZM33.0679 65.5485V61.2922H34.5223V62.2976C34.6195 62.0636 34.7443 61.8707 34.8828 61.7055C35.0351 61.5403 35.2013 61.4166 35.3953 61.334C35.5893 61.2514 35.7969 61.2096 36.0188 61.2096C36.1294 61.2096 36.2683 61.2096 36.4482 61.2377L36.2956 62.6012C36.1019 62.546 35.9219 62.5186 35.7555 62.5186C35.3815 62.5186 35.1041 62.6286 34.8966 62.8352C34.6885 63.0556 34.5916 63.3725 34.5916 63.7995V65.5625H33.0679V65.5485ZM30.1032 62.8761C30.0756 62.628 29.9784 62.4354 29.8261 62.2839C29.6737 62.1462 29.4659 62.0636 29.2305 62.0636C28.718 62.0636 28.4271 62.3251 28.3299 62.8624H30.1032V62.8761ZM31.6269 63.7163H28.302C28.302 64.047 28.3992 64.3085 28.5653 64.4876C28.7315 64.6668 28.981 64.7494 29.2857 64.7494C29.7565 64.7494 30.0753 64.5702 30.2414 64.2396L31.405 64.6946C31.2665 65.0112 31.031 65.2593 30.6709 65.4382C30.3245 65.6174 29.8813 65.7137 29.3688 65.7137C28.8424 65.7137 28.3989 65.6174 28.025 65.4245C27.651 65.2316 27.3601 64.9564 27.1523 64.6257C26.9445 64.2813 26.8473 63.8955 26.8473 63.4685C26.8473 63.1519 26.9028 62.8489 27.0275 62.5734C27.1382 62.2979 27.3046 62.0499 27.5262 61.8298C27.7479 61.6092 27.9971 61.4577 28.302 61.334C28.607 61.2236 28.9255 61.1551 29.2857 61.1551C29.6321 61.1551 29.9505 61.2099 30.2414 61.334C30.5323 61.444 30.7815 61.6092 30.9894 61.8298C31.1972 62.0361 31.3495 62.2979 31.4602 62.6146C31.5711 62.9175 31.6263 63.2759 31.6263 63.6614V63.7163H31.6269ZM22.0683 63.4274C22.0683 63.7577 22.1513 64.0195 22.3313 64.2121C22.5115 64.4048 22.7607 64.5014 23.0654 64.5014C23.3701 64.5014 23.6196 64.4048 23.7995 64.2121C23.9797 64.0195 24.0766 63.7575 24.0766 63.4274C24.0766 63.0967 23.9795 62.8349 23.7995 62.642C23.6196 62.4494 23.3701 62.3531 23.0654 62.3531C22.7604 62.3531 22.5112 62.4494 22.3313 62.642C22.1513 62.8349 22.0683 63.0967 22.0683 63.4274ZM20.6969 59.0196H22.1651V61.2377C22.1651 61.5403 22.1513 61.8021 22.1234 61.9953C22.2482 61.7747 22.3867 61.6095 22.5253 61.4854C22.6638 61.3614 22.8162 61.2788 22.9961 61.2239C23.1763 61.1691 23.3842 61.1413 23.6334 61.1413C23.9105 61.1413 24.1735 61.1962 24.423 61.3065C24.6584 61.4169 24.8803 61.568 25.0465 61.7612C25.2267 61.9538 25.3649 62.2019 25.4621 62.4771C25.5593 62.7529 25.6006 63.0696 25.6006 63.4139C25.6006 63.7583 25.559 64.075 25.4621 64.3645C25.3649 64.6534 25.2267 64.8878 25.0465 65.0944C24.8665 65.2873 24.6587 65.4388 24.3954 65.5491C24.1459 65.6591 23.8691 65.7143 23.5779 65.7143C22.9823 65.7143 22.4833 65.4251 22.0956 64.8603V65.5488H20.6831V59.0199L20.6969 59.0196ZM17.6077 63.4134C17.6077 63.0827 17.5246 62.8212 17.3306 62.6283C17.1504 62.4357 16.9012 62.3394 16.5824 62.3394C16.2636 62.3394 16.0282 62.4357 15.8345 62.6283C15.6545 62.8212 15.5574 63.083 15.5574 63.4134C15.5574 63.7437 15.6404 64.0055 15.8204 64.1984C16.0006 64.391 16.2498 64.4874 16.5686 64.4874C16.8874 64.4874 17.1366 64.391 17.3165 64.1984C17.5243 64.0055 17.6077 63.744 17.6077 63.4134ZM18.9653 61.2922V65.5485H17.5384V64.86C17.3306 65.1627 17.109 65.3696 16.8457 65.5074C16.5962 65.6451 16.3053 65.714 15.9589 65.714C15.668 65.714 15.4185 65.6588 15.1831 65.5488C14.9477 65.4385 14.7399 65.2873 14.5734 65.0804C14.4073 64.8741 14.2687 64.6397 14.1857 64.3645C14.0888 64.075 14.0471 63.7583 14.0471 63.4139C14.0471 63.0696 14.0888 62.7529 14.1857 62.4771C14.2828 62.2019 14.4073 61.9676 14.5875 61.7612C14.7677 61.5683 14.9753 61.4028 15.2248 61.3065C15.4743 61.1962 15.7511 61.1413 16.0561 61.1413C16.6933 61.1413 17.1783 61.4169 17.5246 61.9816V61.2928H18.9653V61.2922ZM11.2072 63.4134C11.2072 63.0827 11.1103 62.8212 10.9301 62.6283C10.7501 62.4357 10.5006 62.3394 10.1821 62.3394C9.86366 62.3394 9.62796 62.4357 9.43422 62.6283C9.25399 62.8212 9.15713 63.083 9.15713 63.4134C9.15713 63.7437 9.2402 64.0055 9.42043 64.1984C9.60036 64.391 9.84987 64.4874 10.1684 64.4874C10.4868 64.4874 10.7363 64.391 10.9166 64.1984C11.1103 64.0055 11.2072 63.744 11.2072 63.4134ZM12.5651 61.2922V65.5485H11.1382V64.86C10.9304 65.1627 10.7088 65.3696 10.4595 65.5074C10.2103 65.6451 9.90535 65.714 9.57277 65.714C9.28188 65.714 9.01858 65.6588 8.78316 65.5488C8.54775 65.4385 8.33993 65.2873 8.17349 65.0804C8.00735 64.8741 7.8688 64.6397 7.78573 64.3645C7.68857 64.075 7.64718 63.7583 7.64718 63.4139C7.64718 63.0696 7.68887 62.7529 7.78573 62.4771C7.8826 62.2019 8.00735 61.9676 8.18758 61.7612C8.36752 61.5683 8.57534 61.4028 8.83864 61.3065C9.08815 61.1962 9.36495 61.1413 9.66993 61.1413C10.3072 61.1413 10.7921 61.4169 11.1382 61.9816V61.2928H12.5651V61.2922ZM1.73187 65.5485V59.3777H3.64366C4.01763 59.3777 4.30852 59.3917 4.53043 59.4054C4.75205 59.4192 4.95987 59.4603 5.1677 59.5155C5.37552 59.5706 5.55546 59.6672 5.73569 59.791C5.9711 59.9699 6.15133 60.1765 6.26199 60.4383C6.37266 60.6864 6.44193 60.9896 6.44193 61.3062C6.44193 61.6229 6.38675 61.8984 6.27579 62.1465C6.16513 62.3945 6.01278 62.5874 5.79087 62.7386C5.58305 62.8901 5.32004 63.0001 5.01506 63.0693L6.74662 65.5622H4.80724L3.35248 63.1519V65.5622H1.73187V65.5485ZM3.35248 62.2976H3.67096C4.04493 62.2976 4.30823 62.2428 4.48846 62.1187C4.6546 61.995 4.75146 61.8018 4.75146 61.5266C4.75146 61.3062 4.72387 61.1411 4.6408 61.017C4.57153 60.893 4.46087 60.8104 4.30823 60.7555C4.15588 60.7004 3.96186 60.6729 3.71264 60.6729H3.36627V62.2979H3.35248V62.2976ZM48.2789 9.32477L45.716 2.50696H47.3507L48.6945 6.74923C48.7635 6.95586 48.8606 7.38283 48.9851 8.03014C49.082 7.42398 49.165 6.98329 49.2622 6.69407L50.6336 2.49296H52.2545L49.6775 9.29704H48.2786L48.2789 9.32477ZM38.2488 9.32477V2.50667H42.3357V3.73242H39.7314V5.13737H42.3357V6.37713H39.7314V8.08501H42.3357V9.32477H38.2488ZM29.6323 8.45711L30.4498 7.53429C30.5605 7.78236 30.7269 7.98899 30.9624 8.12645C31.184 8.2642 31.4473 8.34679 31.7382 8.34679C31.9598 8.34679 32.1676 8.30535 32.3337 8.23677C32.4999 8.16789 32.6384 8.05757 32.7215 7.93354C32.8046 7.79579 32.8604 7.64432 32.8604 7.45141C32.8604 7.29994 32.8184 7.17591 32.7632 7.0796L32.4861 6.81811C32.3616 6.73551 32.1955 6.65292 32.0015 6.55661C31.7936 6.46001 31.572 6.34999 31.3366 6.23996C30.9626 6.04705 30.6715 5.86815 30.436 5.68896C30.2006 5.51005 30.0342 5.30343 29.9097 5.06908C29.7853 4.83472 29.7298 4.57323 29.7298 4.27029C29.7298 3.9122 29.8267 3.58154 30.0345 3.29232C30.2423 3.0031 30.5194 2.76904 30.8934 2.60386C31.2673 2.43867 31.6968 2.34207 32.1817 2.34207C32.5973 2.34207 32.9578 2.41095 33.2625 2.56241C33.5672 2.70017 33.844 2.93423 34.0797 3.23716L33.207 4.06367C32.9989 3.66413 32.6525 3.47151 32.1679 3.47151C31.877 3.47151 31.6416 3.54039 31.4614 3.69186C31.2814 3.82961 31.1984 4.02252 31.1984 4.25658C31.1984 4.40834 31.2259 4.53208 31.2955 4.6424L31.5864 4.9179C31.7112 5.00049 31.8911 5.08308 32.1406 5.1934C32.3901 5.30372 32.5424 5.35859 32.5979 5.38631C33.1797 5.64781 33.6092 5.93732 33.9003 6.2814C34.1909 6.61206 34.3298 6.98387 34.3298 7.42456C34.3298 8.04444 34.1079 8.554 33.6646 8.93953C33.2214 9.32506 32.6258 9.51797 31.8776 9.51797C31.3513 9.51797 30.894 9.43538 30.52 9.24247C30.1032 9.04926 29.8123 8.8012 29.6323 8.45711ZM22.8857 9.32477V6.21194L20.5445 2.50667H22.2761L23.3014 4.36631C23.3983 4.55922 23.5092 4.84815 23.6199 5.20624C23.7029 4.90331 23.8139 4.61409 23.9524 4.3523L24.9637 2.49266H26.6952L24.354 6.19793V9.31076H22.8855V9.32477H22.8857ZM14.5599 5.72981H17.7184C17.7184 5.79869 17.7322 5.92272 17.7322 6.07419C17.7322 6.58375 17.6491 7.05217 17.4967 7.47914C17.3441 7.89239 17.1228 8.2642 16.8316 8.56714C16.5407 8.87036 16.2081 9.10442 15.8066 9.26961C15.4185 9.43479 14.9891 9.50367 14.532 9.50367C13.8117 9.50367 13.1744 9.35191 12.6202 9.03526C12.0523 8.73232 11.609 8.29163 11.3043 7.75435C10.9858 7.20334 10.8335 6.59747 10.8335 5.92243C10.8335 5.24739 10.9996 4.64152 11.3184 4.09052C11.6369 3.55352 12.0804 3.12655 12.6481 2.82332C13.2161 2.52039 13.8396 2.36892 14.5461 2.36892C15.1141 2.36892 15.6266 2.49266 16.0978 2.7133C16.5689 2.94736 16.9845 3.29174 17.3585 3.74643L16.3611 4.47634C16.1256 4.18712 15.8761 3.98049 15.6131 3.82902C15.336 3.67756 15.0173 3.60868 14.6295 3.60868C14.1722 3.60868 13.7844 3.70499 13.438 3.8979C13.1055 4.09081 12.8425 4.3526 12.6484 4.71069C12.4685 5.06878 12.3713 5.46832 12.3713 5.92272C12.3713 6.37713 12.4685 6.79038 12.6484 7.13476C12.8425 7.47914 13.1058 7.75464 13.438 7.93354C13.7844 8.12645 14.1584 8.22276 14.6016 8.22276C14.9201 8.22276 15.1972 8.1676 15.4605 8.07129C15.71 7.97469 15.9037 7.82322 16.0423 7.64432C16.1808 7.46542 16.2501 7.24478 16.2501 7.02444V6.94185H14.5875V5.72981H14.5599Z" fill="white"/>
<path d="M35.589 30.4258L31.71 34.5577L27.8171 30.4258H18.2587C19.8242 24.8063 25.0605 20.674 31.2808 20.674C37.1269 20.674 42.114 24.3379 43.9841 29.4478H51.7695C49.6637 20.2334 41.2962 13.3601 31.2946 13.3601C20.9323 13.3601 12.3293 20.7426 10.6392 30.4255H0.734131L7.96565 37.7394H10.6946C12.5096 47.2982 21.0429 54.543 31.3084 54.543C41.5598 54.543 50.0935 47.2982 51.9084 37.7394H55.4546L62.6861 30.4255L35.589 30.4258ZM27.8174 46.7335C23.2873 45.5629 19.6856 42.1334 18.3418 37.7397H21.8883L27.8174 43.7862V46.7335ZM35.589 46.4717V43.7722L41.5319 37.7254H44.1919C42.9453 41.8439 39.7176 45.1082 35.589 46.4717Z" fill="#002D62"/>
</g>
<defs>
<clipPath id="clip0_1076_1098">
<rect width="63.24" height="68" fill="white"/>
</clipPath>
</defs>
</svg>
