<svg width="150" height="67" viewBox="0 0 150 67" fill="none" xmlns="http://www.w3.org/2000/svg">
<path d="M80.0414 36.7411C80.6897 35.8834 81.0147 34.9005 81.0147 33.791C81.0147 32.6824 80.6897 31.7092 80.0414 30.8722C79.3302 29.9519 78.4407 29.4911 77.3736 29.4911C76.3069 29.4911 75.4174 29.9519 74.7061 30.8722C74.0575 31.7092 73.7329 32.6824 73.7329 33.791C73.7329 34.9005 74.0575 35.8834 74.7061 36.7411C75.4174 37.6619 76.3069 38.1222 77.3736 38.1222C78.4407 38.1222 79.3302 37.6619 80.0414 36.7411ZM74.1726 27.5143C75.2393 26.2381 76.6623 25.5996 78.4407 25.5996C80.5327 25.5996 82.2485 26.4471 83.5877 28.1418C84.8432 29.7319 85.4711 31.5941 85.4711 33.728C85.4711 35.9672 84.8537 37.8713 83.6195 39.4403C82.2802 41.1561 80.5225 42.0138 78.3468 42.0138C76.5053 42.0138 75.1348 41.3656 74.2352 40.0678H74.1726V47.058L69.7787 48.9555V26.1018H74.1726V27.5143Z" fill="#686EA0"/>
<path d="M91.3932 41.5115H86.9994V20.8922L91.3932 18.9947V41.5115Z" fill="#686EA0"/>
<path d="M103.721 36.7415C104.37 35.8838 104.694 34.9009 104.694 33.7914C104.694 32.6828 104.37 31.7096 103.721 30.8726C102.988 29.9523 102.089 29.4915 101.022 29.4915C99.9551 29.4915 99.0656 29.9523 98.3543 30.8726C97.7057 31.7096 97.382 32.6828 97.382 33.7914C97.382 34.9009 97.7057 35.8838 98.3543 36.7415C99.0656 37.6622 99.9551 38.1226 101.022 38.1226C102.089 38.1226 102.988 37.6622 103.721 36.7415ZM108.586 41.5119H104.255V40.0995H104.192C103.208 41.3761 101.817 42.0142 100.018 42.0142C97.8626 42.0142 96.1155 41.1565 94.7767 39.4407C93.542 37.851 92.9251 35.9464 92.9251 33.7283C92.9251 31.5526 93.542 29.6908 94.7767 28.1421C96.1155 26.4475 97.8419 25.5999 99.9551 25.5999C101.713 25.5999 103.145 26.249 104.255 27.5459V26.1022H108.586V41.5119Z" fill="#686EA0"/>
<path d="M115.374 27.5143H115.437C116.273 26.2381 117.613 25.6 119.454 25.6C123.011 25.6 124.789 27.7652 124.789 32.0964V41.5115H120.396V33.3518C120.396 31.9919 120.311 31.0504 120.144 30.527C119.809 29.5855 119.098 29.115 118.01 29.115C116.88 29.115 116.116 29.6799 115.719 30.8096C115.489 31.4583 115.374 32.484 115.374 33.8854V41.5115H110.98V26.1018H115.374V27.5143Z" fill="#686EA0"/>
<path d="M136.873 31.7828C136.747 30.9251 136.443 30.2134 135.962 29.6489C135.418 29.0003 134.749 28.6757 133.954 28.6757C132.279 28.6757 131.296 29.7115 131.004 31.7828H136.873ZM130.878 34.5133C130.878 35.643 131.098 36.5744 131.537 37.3064C132.081 38.2064 132.876 38.6562 133.922 38.6562C135.199 38.6562 136.182 37.9555 136.873 36.5532L140.921 37.2124C140.398 38.7395 139.498 39.9222 138.222 40.7587C136.987 41.5952 135.554 42.0142 133.922 42.0142C131.579 42.0142 129.706 41.2508 128.305 39.7229C126.923 38.2589 126.233 36.3336 126.233 33.9484C126.233 31.5001 126.85 29.5232 128.085 28.0165C129.423 26.4056 131.296 25.5999 133.703 25.5999C136.109 25.5999 137.96 26.4162 139.258 28.0478C140.429 29.5338 141.015 31.5111 141.015 33.9797V34.5133H130.878Z" fill="#686EA0"/>
<path d="M147.3 41.5115H142.906V29.8051H141.4V26.1018H142.906V22.7893L147.3 20.8922V26.1018H149.999V29.8051H147.3V41.5115Z" fill="#686EA0"/>
<path d="M27.3105 30.989C26.2226 30.989 25.3336 31.4392 24.6431 32.3383C23.9939 33.1965 23.6698 34.1904 23.6698 35.3202C23.6698 36.4292 23.9939 37.402 24.6431 38.239C25.3539 39.1597 26.2438 39.6196 27.3105 39.6196C28.3776 39.6196 29.2666 39.1597 29.9783 38.239C30.6266 37.402 30.9511 36.4292 30.9511 35.3202C30.9511 34.1904 30.6266 33.1965 29.9783 32.3383C29.2878 31.4392 28.3983 30.989 27.3105 30.989Z" fill="#76BD22"/>
<path d="M57.4203 38.8024C57.9641 39.7024 58.7591 40.1522 59.8056 40.1522C61.0817 40.1522 62.0655 39.4515 62.7561 38.0492L66.0263 38.5814C66.148 37.7343 66.2353 36.8758 66.2922 36.0092H56.7615C56.7615 37.139 56.9811 38.0703 57.4203 38.8024Z" fill="#76BD22"/>
<path d="M59.8366 30.1727C58.1627 30.1727 57.1793 31.2085 56.8865 33.2798H62.7554C62.6297 32.4221 62.3263 31.7108 61.8452 31.1459C61.3011 30.4973 60.6317 30.1727 59.8366 30.1727Z" fill="#76BD22"/>
<path d="M50.6732 43.0086H46.2794V34.8489C46.2794 33.4889 46.1956 32.547 46.028 32.024C45.6933 31.0825 44.9816 30.6116 43.8937 30.6116C42.7639 30.6116 42.0002 31.1765 41.6029 32.3062C41.3727 32.9553 41.2576 33.9806 41.2576 35.382V43.0086H36.8642V27.5989H41.2576V29.0113H41.3206C42.1572 27.7351 43.4964 27.0966 45.3374 27.0966C48.8943 27.0966 50.6732 29.2622 50.6732 33.593V43.0086ZM33.1799 41.1882C31.6735 42.7369 29.7165 43.5104 27.311 43.5104C24.9047 43.5104 22.9485 42.7369 21.4417 41.1882C19.9561 39.6819 19.2135 37.7257 19.2135 35.3194C19.2135 32.9134 19.9671 30.9463 21.4735 29.4192C22.9798 27.8709 24.9254 27.0966 27.311 27.0966C29.6962 27.0966 31.6418 27.8709 33.1486 29.4192C34.6549 30.9463 35.4081 32.9134 35.4081 35.3194C35.4081 37.7257 34.6651 39.6819 33.1799 41.1882ZM64.1056 42.2549C62.8704 43.0919 61.4377 43.5104 59.8057 43.5104C57.4623 43.5104 55.5895 42.7471 54.1881 41.2195C52.807 39.7555 52.1165 37.8303 52.1165 35.445C52.1165 32.9968 52.7334 31.0195 53.9685 29.5131C55.3069 27.9023 57.1797 27.0966 59.5856 27.0966C61.992 27.0966 63.8436 27.9128 65.1414 29.5444C65.63 30.1649 66.011 30.8757 66.2959 31.6677C65.189 14.3402 50.7927 0.626945 33.1865 0.626945C14.858 0.626945 0 15.4845 0 33.813C0 52.141 14.858 66.9991 33.1865 66.9991C49.0879 66.9991 62.3703 55.8121 65.6106 40.8809C65.1842 41.4083 64.6894 41.8726 64.1056 42.2549Z" fill="#76BD22"/>
<path d="M80.4823 50.8554H83.9627C84.898 50.8554 85.6525 51.1292 86.2261 51.677C86.7997 52.2196 87.0865 52.9353 87.0865 53.8242C87.0865 54.4081 86.9444 54.9636 86.6602 55.4907C86.3811 56.0126 85.9574 56.4028 85.3889 56.6612C84.8205 56.9196 84.3347 57.0539 83.9317 57.0642L82.6604 57.0952V60.2969L80.4823 61.033V50.8554ZM82.6294 52.8881V55.4926H83.4821C83.849 55.4926 84.1616 55.3608 84.42 55.0973C84.6835 54.8337 84.8153 54.5211 84.8153 54.1593C84.8153 53.7459 84.668 53.4255 84.3735 53.1982C84.0789 52.9708 83.6603 52.8571 83.1177 52.8571L82.6294 52.8881Z" fill="#686EA0"/>
<path d="M91.8358 55.9399C91.8358 54.4362 92.3319 53.1959 93.3241 52.2193C94.3214 51.2374 95.5022 50.7465 96.8665 50.7465C98.3754 50.7465 99.6234 51.24 100.61 52.227C101.597 53.2089 102.091 54.4517 102.091 55.9554C102.091 57.4489 101.603 58.6891 100.626 59.6761C99.6492 60.6631 98.4193 61.1566 96.9362 61.1566C95.4531 61.1566 94.231 60.6657 93.2698 59.6839C92.3138 58.702 91.8358 57.4541 91.8358 55.9399ZM96.9672 52.7774C96.1146 52.7619 95.4273 53.0564 94.9053 53.661C94.3834 54.2656 94.1224 55.0459 94.1224 56.0019C94.1224 56.9063 94.3886 57.6556 94.9209 58.2499C95.4531 58.8441 96.1249 59.1413 96.9362 59.1413C97.7889 59.1413 98.4762 58.8493 98.9981 58.2654C99.5252 57.6763 99.7887 56.9011 99.7887 55.9399C99.7887 54.9943 99.5304 54.2346 99.0136 53.661C98.502 53.0874 97.8199 52.7929 96.9672 52.7774Z" fill="#686EA0"/>
<path d="M107.212 50.8553H110.561C111.579 50.8553 112.382 51.1241 112.971 51.6615C113.566 52.1989 113.863 52.925 113.863 53.8396C113.863 54.3616 113.726 54.9042 113.452 55.4674C113.183 56.0307 112.685 56.4725 111.956 56.7929L114.801 61.033H112.289L109.654 57.0952H109.406V61.033H107.212V50.8553ZM109.421 52.6692V55.3202H109.894C111.036 55.3202 111.607 54.8525 111.607 53.9172C111.607 53.5347 111.457 53.2324 111.158 53.0102C110.863 52.7829 110.452 52.6692 109.925 52.6692H109.421Z" fill="#686EA0"/>
<path d="M118.937 50.8553H125.782V53.018H123.449V61.033H121.255V53.018H118.937V50.8553Z" fill="#686EA0"/>
<path d="M134.073 50.8553H135.771L139.925 61.033H137.724L136.895 59.0331H132.996L132.197 61.033H130.004L134.073 50.8553ZM134.926 54.1885L133.74 57.1883H136.151L134.926 54.1885ZM133.786 50.1732L134.872 47.8555H137.298L135.174 50.1732H133.786Z" fill="#686EA0"/>
<path d="M144.822 51.8474L147 50.8553V58.8393H150V61.033H144.822V51.8474Z" fill="#686EA0"/>
</svg>
